<svg width="299" height="308" viewBox="0 0 299 308" fill="none" xmlns="http://www.w3.org/2000/svg">
<path d="M254.608 10.1731H267.484L266.616 61.3324H255.476L254.608 10.1731Z" fill="#DC0000"/>
<path d="M266.616 67.7377H255.483V79.7421H266.616V67.7377Z" fill="#DC0000"/>
<path d="M284.508 52.1047L294.978 55.3911L283.048 96.7673L273.989 93.9222L284.508 52.1047Z" fill="#DC0000"/>
<path d="M281.632 101.982L272.582 99.1413L269.947 108.9L278.997 111.74L281.632 101.982Z" fill="#DC0000"/>
<path d="M158.248 35.1556L166.588 30.9031L180.543 64.3449L173.325 68.0268L158.248 35.1556Z" fill="#DC0000"/>
<path d="M182.361 68.514L175.145 72.1869L178.552 79.9675L185.767 76.2946L182.361 68.514Z" fill="#DC0000"/>
<path d="M223.911 60.7923H215.501V307.315H223.911V60.7923Z" fill="#DC0000"/>
<path d="M219.706 18.6173L153.627 142.023H285.785L219.706 18.6173Z" fill="#DC0000"/>
<path d="M219.706 36.4946L167.992 133.085H271.428L219.706 36.4946Z" fill="white"/>
<path d="M214.471 64.4439H224.948L224.243 106.086H215.177L214.471 64.4439Z" fill="#DC0000"/>
<path d="M224.236 111.305H215.177V121.073H224.236V111.305Z" fill="#DC0000"/>
<path d="M285.785 149.205H153.627V196.88H285.785V149.205Z" fill="#DC0000"/>
<path d="M282.815 193.7H156.598V152.385H282.815V193.7ZM157.303 192.939H282.11V153.145H157.303V192.939Z" fill="white"/>
<path d="M173.84 159.406H176.458L178.109 164.632L179.753 159.406H182.398L179.901 166.587L181.756 171.639L185.905 159.36H188.995L183.033 175.146H180.642L178.109 168.52L175.569 175.146H173.177L167.258 159.36H170.313L174.475 171.639L176.288 166.587L173.84 159.406Z" fill="#F2F3F7"/>
<path d="M193.405 159.36H195.923L201.504 175.146H198.576L197.2 171.213H192.085L190.745 175.146H187.817L193.405 159.36ZM196.685 169.052L194.667 162.845L192.551 169.045L196.685 169.052Z" fill="#F2F3F7"/>
<path d="M203.098 175.146V159.36H209.575C210.22 159.354 210.858 159.51 211.438 159.817C211.996 160.111 212.497 160.519 212.912 161.019C213.329 161.514 213.659 162.086 213.886 162.708C214.113 163.312 214.23 163.958 214.232 164.61C214.242 165.593 213.998 166.56 213.526 167.401C213.076 168.21 212.399 168.844 211.593 169.212L214.937 175.146H211.741L208.75 169.859H205.928V175.146H203.098ZM205.92 167.166H209.49C209.737 167.161 209.979 167.093 210.196 166.968C210.424 166.83 210.623 166.644 210.782 166.42C210.953 166.174 211.087 165.899 211.177 165.606C211.271 165.284 211.319 164.948 211.318 164.61C211.32 164.26 211.265 163.912 211.155 163.583C211.05 163.289 210.9 163.016 210.711 162.776C210.534 162.552 210.315 162.371 210.069 162.244C209.85 162.123 209.609 162.058 209.363 162.053H205.92V167.166Z" fill="#F2F3F7"/>
<path d="M219.657 165.028V175.146H216.835V159.36H219.036L226.649 169.691V159.383H229.471V175.146H227.185L219.657 165.028Z" fill="#F2F3F7"/>
<path d="M232.547 175.146V159.36H235.369V175.146H232.547Z" fill="#F2F3F7"/>
<path d="M241.288 165.028V175.146H238.466V159.36H240.667L248.28 169.691V159.383H251.102V175.146H248.795L241.288 165.028Z" fill="#F2F3F7"/>
<path d="M264.338 173.366C263.815 173.966 263.183 174.444 262.481 174.769C261.78 175.095 261.024 175.262 260.26 175.26C259.323 175.268 258.396 175.055 257.543 174.636C256.71 174.232 255.961 173.649 255.342 172.924C254.701 172.175 254.196 171.303 253.854 170.353C253.483 169.338 253.299 168.256 253.31 167.166C253.296 165.092 254.032 163.094 255.363 161.597C256.004 160.872 256.771 160.29 257.621 159.885C258.508 159.454 259.471 159.236 260.443 159.246C261.676 159.21 262.895 159.533 263.971 160.182C264.923 160.767 265.694 161.644 266.186 162.7L264.07 164.389C263.731 163.634 263.191 163.006 262.517 162.586C261.856 162.171 261.103 161.956 260.337 161.962C259.747 161.957 259.164 162.103 258.637 162.388C258.125 162.666 257.674 163.06 257.318 163.544C256.948 164.051 256.662 164.622 256.471 165.233C256.271 165.886 256.17 166.569 256.175 167.257C256.171 167.965 256.283 168.668 256.506 169.334C256.71 169.948 257.016 170.518 257.409 171.015C257.794 171.483 258.262 171.864 258.785 172.133C259.323 172.409 259.911 172.55 260.507 172.544C261.254 172.518 261.987 172.311 262.65 171.939C263.313 171.566 263.89 171.037 264.338 170.391V169.28H261.389V166.998H266.694V175.115H264.338V173.366Z" fill="#F2F3F7"/>
<path d="M269.389 169.212V159.208H272.155V169.212H269.389ZM269.389 175.146V171.791H272.155V175.146H269.389Z" fill="#F2F3F7"/>
<path d="M171.343 179.771H172.676L175.625 188.139H174.073L173.368 186.055H170.659L169.953 188.139H168.401L171.343 179.771ZM173.078 184.898L172.013 181.619L170.898 184.906L173.078 184.898Z" fill="white"/>
<path d="M181.502 181.193H179.026V188.124H177.516V181.193H175.04V179.771H181.488L181.502 181.193Z" fill="white"/>
<path d="M188.254 181.193H185.778V188.124H184.282V181.193H181.806V179.771H188.254V181.193Z" fill="white"/>
<path d="M194.59 186.701V188.124H189.214V179.756H194.491V181.178H190.717V183.194H193.983V184.51H190.717V186.686L194.59 186.701Z" fill="white"/>
<path d="M197.271 182.768V188.093H195.761V179.725H196.932L200.968 185.21V179.74H202.47V188.109H201.25L197.271 182.768Z" fill="white"/>
<path d="M209.885 181.193H207.409V188.124H205.913V181.193H203.437V179.771H209.885V181.193Z" fill="white"/>
<path d="M210.845 188.124V179.756H212.355V188.124H210.845Z" fill="white"/>
<path d="M217.272 188.185C216.738 188.191 216.21 188.066 215.727 187.819C215.277 187.592 214.874 187.268 214.542 186.869C214.208 186.474 213.947 186.014 213.773 185.514C213.592 185.015 213.498 184.484 213.498 183.947C213.498 183.4 213.596 182.857 213.787 182.35C213.972 181.849 214.243 181.389 214.584 180.996C214.924 180.599 215.334 180.281 215.791 180.06C216.267 179.826 216.784 179.707 217.308 179.71C217.838 179.706 218.362 179.834 218.839 180.083C219.289 180.321 219.692 180.652 220.024 181.057C220.351 181.458 220.609 181.919 220.786 182.418C221.056 183.172 221.125 183.992 220.984 184.786C220.843 185.579 220.498 186.314 219.989 186.907C219.651 187.3 219.243 187.615 218.789 187.835C218.313 188.068 217.795 188.187 217.272 188.185ZM215.022 183.947C215.024 184.304 215.076 184.658 215.177 184.997C215.274 185.32 215.424 185.622 215.621 185.887C215.815 186.145 216.055 186.357 216.327 186.511C216.626 186.669 216.954 186.751 217.286 186.751C217.619 186.751 217.947 186.669 218.246 186.511C218.521 186.355 218.762 186.137 218.951 185.872C219.145 185.603 219.293 185.299 219.389 184.974C219.487 184.645 219.537 184.301 219.537 183.955C219.536 183.598 219.481 183.243 219.375 182.905C219.275 182.583 219.125 182.282 218.93 182.015C218.738 181.758 218.498 181.548 218.225 181.399C217.927 181.241 217.6 181.159 217.269 181.159C216.937 181.159 216.61 181.241 216.313 181.399C216.038 181.554 215.797 181.772 215.607 182.038C215.417 182.305 215.272 182.607 215.177 182.928C215.077 183.257 215.024 183.601 215.022 183.947Z" fill="white"/>
<path d="M223.721 182.768V188.093H222.211V179.725H223.375L227.411 185.21V179.74H228.913V188.109H227.693L223.721 182.768Z" fill="white"/>
<path d="M233.154 188.124V179.756H236.441C236.784 179.754 237.121 179.837 237.429 179.999C237.722 180.156 237.985 180.37 238.205 180.631C238.423 180.896 238.597 181.2 238.72 181.528C238.838 181.848 238.901 182.188 238.904 182.532C238.905 182.884 238.845 183.232 238.727 183.559C238.618 183.887 238.453 184.189 238.24 184.449C238.026 184.709 237.768 184.921 237.478 185.073C237.171 185.234 236.832 185.314 236.491 185.309H234.663V188.109L233.154 188.124ZM234.663 183.902H236.406C236.542 183.905 236.677 183.874 236.8 183.811C236.922 183.747 237.029 183.653 237.112 183.537C237.313 183.254 237.413 182.903 237.394 182.548C237.397 182.353 237.366 182.159 237.302 181.977C237.251 181.822 237.175 181.677 237.076 181.551C236.988 181.434 236.874 181.343 236.745 181.285C236.623 181.226 236.49 181.195 236.357 181.194H234.663V183.902Z" fill="white"/>
<path d="M239.955 188.124V179.756H241.458V186.686H245.409V188.109L239.955 188.124Z" fill="white"/>
<path d="M251.702 186.701V188.124H246.326V179.756H251.596V181.178H247.821V183.194H251.081V184.51H247.821V186.686L251.702 186.701Z" fill="white"/>
<path d="M255.081 179.771H256.414L259.356 188.139H257.811L257.106 186.055H254.418L253.712 188.139H252.16L255.081 179.771ZM256.817 184.906L255.744 181.627L254.637 184.906H256.817Z" fill="white"/>
<path d="M264.704 181.962C264.62 181.876 264.528 181.799 264.429 181.734C264.271 181.63 264.106 181.539 263.935 181.46C263.732 181.364 263.522 181.288 263.307 181.232C263.077 181.167 262.84 181.133 262.602 181.133C262.275 181.107 261.948 181.195 261.671 181.384C261.571 181.463 261.492 181.568 261.439 181.689C261.386 181.81 261.361 181.943 261.367 182.076C261.361 182.23 261.4 182.382 261.48 182.51C261.569 182.633 261.683 182.735 261.812 182.806C261.987 182.904 262.172 182.983 262.362 183.042L263.131 183.263C263.512 183.377 263.837 183.491 264.168 183.62C264.451 183.731 264.715 183.891 264.951 184.092C265.161 184.272 265.33 184.501 265.445 184.761C265.571 185.067 265.632 185.4 265.622 185.735C265.632 186.133 265.552 186.527 265.389 186.884C265.239 187.19 265.021 187.452 264.754 187.645C264.475 187.848 264.164 187.995 263.837 188.078C263.48 188.165 263.116 188.208 262.75 188.208C262.166 188.208 261.586 188.113 261.029 187.926C260.485 187.748 259.97 187.479 259.505 187.127L260.168 185.728C260.277 185.831 260.395 185.923 260.521 186.001C260.716 186.129 260.918 186.244 261.127 186.344C261.377 186.465 261.637 186.562 261.903 186.633C262.187 186.712 262.478 186.752 262.771 186.755C263.604 186.755 264.02 186.465 264.02 185.895C264.022 185.728 263.972 185.565 263.879 185.431C263.765 185.293 263.625 185.182 263.47 185.104C263.268 184.997 263.058 184.91 262.842 184.845L262.009 184.586C261.679 184.493 261.356 184.373 261.043 184.229C260.786 184.119 260.548 183.965 260.337 183.772C260.16 183.602 260.021 183.392 259.928 183.156C259.829 182.893 259.781 182.611 259.787 182.327C259.782 181.939 259.857 181.554 260.006 181.201C260.147 180.879 260.354 180.595 260.612 180.372C260.884 180.151 261.19 179.983 261.515 179.878C261.872 179.759 262.243 179.7 262.616 179.703C263.128 179.699 263.637 179.795 264.119 179.984C264.542 180.148 264.945 180.368 265.318 180.638L264.704 181.962Z" fill="white"/>
<path d="M272.155 186.701V188.124H266.779V179.756H272.056V181.178H268.282V183.194H271.541V184.51H268.282V186.686L272.155 186.701Z" fill="white"/>
<path d="M127.777 307.293H66.6931C66.1852 305.17 65.6984 303.086 65.2115 301.032C64.6542 298.666 64.1039 296.361 63.5818 294.117C63.4618 293.615 63.3419 293.112 63.222 292.595C62.8198 290.876 62.4247 289.195 62.0367 287.567C61.8039 286.578 61.5711 285.596 61.3312 284.63C61.0913 283.664 60.8655 282.675 60.6257 281.732C60.5622 281.481 60.5128 281.23 60.4493 280.971C60.3858 280.713 60.3223 280.423 60.2588 280.157C60.1953 279.891 60.1036 279.511 60.026 279.183C59.9413 278.841 59.8637 278.506 59.7861 278.172L59.3487 276.3C59.1299 275.403 58.9253 274.513 58.7207 273.653C58.6361 273.28 58.5444 272.892 58.4597 272.535C58.3139 271.931 58.1728 271.345 58.0364 270.777C57.9447 270.389 57.86 270.017 57.7753 269.651C57.4155 268.13 57.0698 266.715 56.7735 265.391C56.6818 265.041 56.6112 264.699 56.5195 264.364C56.3925 263.786 56.2585 263.238 56.1385 262.706C56.0539 262.371 55.9763 262.044 55.9057 261.725C55.6306 260.591 55.3836 259.557 55.2002 258.644C55.1367 258.408 55.0803 258.172 55.0238 257.944C54.8898 257.343 54.7557 256.81 54.6499 256.331C54.6005 256.141 54.5652 255.958 54.5158 255.791C54.4665 255.624 54.4312 255.426 54.3888 255.266C54.3465 255.106 54.3395 255.03 54.3112 254.931C54.283 254.832 54.2336 254.612 54.2054 254.482C54.195 254.415 54.1784 254.349 54.156 254.285C54.0643 253.889 54.022 253.691 54.022 253.691H113.483C113.483 253.691 115.438 260.964 118.577 272.71C119.212 275.098 119.896 277.677 120.637 280.416C122.733 288.274 125.16 297.403 127.777 307.293Z" fill="#37474F"/>
<path d="M76.6902 307.293H75.1663C72.9086 297.2 70.7192 287.09 68.5979 276.962C68.0829 274.505 67.582 272.04 67.081 269.568C67.0317 269.332 66.9823 269.111 66.9399 268.876C66.9399 268.754 67.0881 268.701 67.1163 268.822L67.1798 269.05C67.8712 271.698 68.5556 274.35 69.2329 277.008C71.8104 287.075 74.2962 297.17 76.6902 307.293Z" fill="#263238"/>
<path d="M111.564 253.737L108.947 267.902L106.788 279.518L103.126 299.297L102.752 301.321L102.124 304.706L101.652 307.27H66.6861L65.2115 301.009C64.6542 298.643 64.1039 296.338 63.5818 294.094C63.4618 293.592 63.3419 293.09 63.222 292.572C62.8198 290.853 62.4247 289.172 62.0367 287.544C61.8039 286.555 61.5711 285.574 61.3312 284.607C61.0913 283.641 60.8655 282.652 60.6257 281.709C60.5622 281.458 60.5128 281.207 60.4493 280.948C60.3858 280.69 60.3223 280.401 60.2588 280.134C60.1953 279.868 60.1036 279.488 60.026 279.161C59.9413 278.818 59.8637 278.484 59.7861 278.149L59.3487 276.277C59.1299 275.38 58.9253 274.49 58.7207 273.63C58.629 273.25 58.5444 272.869 58.4597 272.512C58.3139 271.908 58.1728 271.323 58.0364 270.755C57.9447 270.367 57.86 269.994 57.7753 269.629C57.4155 268.107 57.0698 266.692 56.7735 265.369C56.6818 265.019 56.6112 264.676 56.5195 264.342C56.3925 263.763 56.2585 263.216 56.1385 262.683C56.0539 262.348 55.9763 262.021 55.9057 261.702C55.6306 260.568 55.3836 259.534 55.2002 258.621C55.1367 258.385 55.0803 258.149 55.0238 257.921C54.8898 257.32 54.7557 256.787 54.6499 256.308C54.6005 256.118 54.5652 255.935 54.5158 255.768C54.4665 255.601 54.4312 255.403 54.3888 255.243C54.3465 255.083 54.3395 255.007 54.3112 254.908C54.283 254.81 54.2336 254.589 54.2054 254.46C54.195 254.392 54.1784 254.326 54.156 254.262C54.0643 253.866 54.022 253.668 54.022 253.668L111.564 253.737Z" fill="#263238"/>
<path d="M111.578 253.706C111.578 254.056 111.324 257.875 110.753 263.71C110.59 265.414 110.4 267.286 110.174 269.286C109.828 272.451 109.391 275.943 108.855 279.632C107.945 286.068 106.738 293.082 105.207 299.944C104.657 302.416 104.05 304.866 103.408 307.262H26.6545C27.5576 294.649 28.3901 283.238 29.0463 274.246C29.9634 261.595 30.5561 253.706 30.5561 253.706H100.177H111.578Z" fill="#37474F"/>
<path d="M111.416 261.314C111.324 264.273 111.211 267.232 111.035 270.176C110.845 273.371 110.576 276.567 110.188 279.754C110.188 279.868 110.188 279.99 110.188 280.104C109.822 283.094 109.412 286.068 108.94 289.043C108.495 291.812 108.171 294.801 107.035 297.365C106.606 298.356 105.997 299.243 105.243 299.974C104.551 300.657 103.704 301.129 102.787 301.344C102.637 301.387 102.484 301.415 102.329 301.427H102.195C102.222 301.445 102.245 301.471 102.26 301.502C102.275 301.533 102.282 301.568 102.28 301.602C102.28 302.599 102.28 303.611 102.174 304.592C102.174 304.638 102.174 304.676 102.174 304.721C102.082 305.581 101.934 306.433 101.786 307.285H100.466C100.468 307.267 100.468 307.249 100.466 307.232C100.699 306.296 100.89 305.353 101.108 304.409C101.327 303.466 101.63 302.508 101.814 301.534C101.818 301.515 101.826 301.497 101.837 301.481C101.848 301.465 101.862 301.452 101.877 301.443C101.041 301.485 100.213 301.25 99.5043 300.77C98.7954 300.29 98.2399 299.588 97.9123 298.757C97.5809 297.489 97.559 296.15 97.8488 294.87C98.0887 293.173 98.3215 291.485 98.5544 289.788C99.0059 286.669 99.5844 283.596 100.092 280.5L100.325 279.085C101.355 272.786 102.442 266.479 103.726 260.241C103.775 259.975 103.825 259.716 103.881 259.48C103.937 259.245 104.177 259.359 104.163 259.526C104.121 259.945 104.086 260.371 104.036 260.789C103.81 263.185 103.549 265.566 103.239 267.947C102.865 270.747 102.611 273.554 102.244 276.354C102.124 277.304 101.997 278.255 101.87 279.206C101.271 283.809 100.65 288.404 99.9231 292.991C99.5844 295.121 98.3568 298.932 101.193 299.594C101.844 299.748 102.523 299.656 103.119 299.335C104.375 298.52 105.315 297.242 105.765 295.737C106.458 293.231 106.963 290.67 107.275 288.076C107.745 285.272 108.157 282.462 108.509 279.648C108.975 276.133 109.455 272.634 109.963 269.127L110.746 263.763C110.873 262.942 110.993 262.113 111.12 261.283C111.155 261.086 111.416 261.139 111.416 261.314Z" fill="#263238"/>
<path d="M43.4673 283.314C46.6635 283.278 49.8434 282.818 52.9354 281.945C54.3464 281.549 55.7575 281.055 57.1685 280.56C58.554 280.146 59.8507 279.443 60.9854 278.491C63.102 276.49 64.1391 273.341 65.0774 270.542C66.1013 267.383 66.931 264.156 67.5608 260.88C67.5608 260.72 67.8078 260.774 67.8148 260.926C67.8912 264.629 67.4561 268.323 66.5237 271.888C65.7547 274.931 64.7176 278.293 62.4458 280.416C60.0612 282.645 56.8016 283.459 53.7679 283.839C50.3378 284.269 46.8704 284.215 43.4532 283.679C43.431 283.678 43.4091 283.673 43.3889 283.663C43.3687 283.652 43.3506 283.638 43.3355 283.621C43.3205 283.603 43.3088 283.582 43.3011 283.56C43.2935 283.537 43.29 283.513 43.2909 283.489C43.2918 283.465 43.2971 283.442 43.3065 283.42C43.3159 283.398 43.3291 283.379 43.3455 283.362C43.3619 283.346 43.3811 283.333 43.402 283.325C43.4229 283.317 43.4451 283.313 43.4673 283.314Z" fill="#263238"/>
<path d="M38.1687 260.979C37.9994 265.609 37.8206 270.245 37.6325 274.885C37.1857 285.688 36.7012 296.49 36.1791 307.293H34.7681C35.4313 296.46 36.1368 285.642 36.8846 274.84C37.1668 270.214 37.4796 265.594 37.823 260.979C37.823 260.713 38.1828 260.728 38.1687 260.979Z" fill="#263238"/>
<path d="M99.7115 158.349C110.245 172.103 147.884 222.745 142.586 236.849C137.217 251.135 124.652 260.956 118.111 251.006C112.714 242.798 92.3952 185.978 89.4885 171.304C86.7228 157.337 89.3262 144.83 99.7115 158.349Z" fill="#F19999"/>
<path d="M96.6847 207.857L135.82 199.489C135.82 199.489 108.269 162.662 97.3338 154.294C85.0224 144.884 83.2233 153.731 85.5375 168.999C87.8516 184.267 96.6847 207.857 96.6847 207.857Z" fill="#2909F0"/>
<path d="M135.82 199.466L96.6847 207.834C96.6847 207.834 87.8234 184.252 85.5375 168.953C83.2516 153.655 85.0225 144.838 97.3338 154.248C97.9547 154.728 98.632 155.298 99.3587 155.945L100.248 156.759C104.22 160.479 109.349 166.275 114.471 172.399L114.753 172.734C118.789 177.58 122.817 182.624 126.253 186.99L127.664 188.839C132.497 195.024 135.82 199.466 135.82 199.466Z" fill="#2909F0"/>
<path d="M108.199 195.45C107.75 196.667 107.467 197.948 107.359 199.253C108.072 198.205 108.647 197.056 109.067 195.838C109.515 194.633 109.8 193.364 109.913 192.072C109.198 193.106 108.621 194.243 108.199 195.45ZM93.5945 176.964C92.4659 176.477 91.2776 176.169 90.0669 176.051C91.0301 176.828 92.0923 177.45 93.2206 177.899C94.3497 178.385 95.5377 178.692 96.7482 178.812C95.785 178.036 94.7228 177.413 93.5945 176.964ZM101.137 158.615C100.873 157.992 100.579 157.385 100.255 156.797L99.3586 155.998C99.5706 157.044 99.8827 158.064 100.29 159.041C100.758 160.237 101.388 161.352 102.16 162.35C101.987 161.058 101.642 159.8 101.137 158.615ZM128.024 189.6C127.918 189.356 127.812 189.113 127.699 188.877L126.288 187.028C126.49 188.054 126.793 189.054 127.191 190.01C127.668 191.204 128.3 192.318 129.068 193.32C128.887 192.032 128.536 190.779 128.024 189.6ZM114.478 172.437C114.28 172.59 114.083 172.757 113.892 172.932C114.184 172.895 114.474 172.841 114.76 172.772L114.478 172.437Z" fill="white"/>
<path d="M128.934 193.152C127.523 193.213 115.303 195.625 112.658 196.195C110.012 196.766 99.161 199.063 96.473 199.915C96.4521 199.921 96.4337 199.935 96.4206 199.953C96.4075 199.972 96.4004 199.994 96.4004 200.018C96.4004 200.041 96.4075 200.064 96.4206 200.082C96.4337 200.101 96.4521 200.114 96.473 200.12C99.2528 199.831 110.195 197.564 112.905 197.032C115.614 196.499 127.671 193.822 128.955 193.327C129.096 193.274 129.033 193.152 128.934 193.152Z" fill="#263238"/>
<path d="M119.24 203.019L96.6634 207.85C96.6634 207.85 87.8021 184.267 85.5162 168.976C83.83 157.71 84.3521 149.958 89.6858 150.422L119.24 203.019Z" fill="#263238"/>
<path d="M123.897 277.381L24.6086 283.04C24.6086 283.04 33.0185 191.821 69.762 153.031C74.2985 148.239 86.3629 146.025 92.5292 151.213C95.8169 153.982 101.779 166.367 104.939 179.01C108.1 191.654 124.165 276.955 123.897 277.381Z" fill="#2909F0"/>
<path d="M80.9446 161.559C80.5024 162.766 80.2198 164.033 80.105 165.325C80.8256 164.283 81.403 163.136 81.8194 161.917C82.2648 160.711 82.5498 159.443 82.6661 158.151C81.9474 159.195 81.368 160.342 80.9446 161.559ZM69.5222 210.383C69.0676 211.599 68.7824 212.881 68.6756 214.186C70.0944 212.077 70.9751 209.604 71.2296 207.013C70.5177 208.045 69.943 209.179 69.5222 210.383ZM62.2624 262.181C61.8146 263.384 61.5295 264.649 61.4158 265.939C62.8346 263.83 63.7153 261.356 63.9698 258.765C63.2525 259.81 62.6776 260.961 62.2624 262.181ZM108.326 195.115L108.199 195.45C107.75 196.667 107.467 197.948 107.359 199.253C107.881 198.509 108.322 197.703 108.672 196.849C108.552 196.233 108.439 195.67 108.326 195.115ZM89.4955 256.818C89.0422 258.035 88.7547 259.316 88.6418 260.622C89.3644 259.583 89.9442 258.438 90.3633 257.221C90.8063 256.015 91.089 254.747 91.2029 253.455C90.4916 254.485 89.917 255.617 89.4955 256.818ZM49.2455 191.471C48.7985 192.676 48.5157 193.944 48.406 195.237C49.122 194.194 49.6968 193.046 50.1133 191.829C50.5652 190.612 50.8504 189.33 50.9599 188.025C50.2364 189.078 49.6589 190.239 49.2455 191.471ZM93.5946 176.964C92.466 176.477 91.2777 176.169 90.067 176.051C91.0302 176.828 92.0924 177.45 93.2207 177.9C94.3498 178.385 95.5378 178.692 96.7483 178.812C95.7851 178.036 94.7229 177.413 93.5946 176.964ZM103.521 217.762C102.405 217.283 101.232 216.978 100.036 216.857C100.998 217.634 102.06 218.254 103.19 218.698C104.308 219.18 105.484 219.49 106.682 219.618C105.718 218.837 104.653 218.212 103.521 217.762ZM108.721 266.304C107.592 265.817 106.404 265.51 105.193 265.391C107.148 266.921 109.439 267.873 111.839 268.153C110.886 267.382 109.836 266.76 108.721 266.304ZM34.4155 263.649C33.2869 263.162 32.0986 262.855 30.8879 262.736C32.8453 264.265 35.1384 265.216 37.5409 265.498C36.5853 264.726 35.533 264.103 34.4155 263.649ZM60.8725 231.044C59.7446 230.554 58.5561 230.244 57.3449 230.124C58.3103 230.903 59.3748 231.528 60.5056 231.98C61.6356 232.461 62.8234 232.766 64.0332 232.885C63.0659 232.113 62.0017 231.493 60.8725 231.044ZM70.3759 184.83C69.8991 183.636 69.2672 182.522 68.4992 181.521C68.8778 184.095 69.8779 186.516 71.3989 188.542C71.2205 187.259 70.8762 186.01 70.3759 184.83ZM87.5412 225.909C87.0646 224.717 86.4353 223.604 85.6716 222.6C85.8457 223.884 86.1902 225.134 86.6946 226.313C87.1692 227.506 87.7987 228.62 88.5642 229.622C88.3887 228.336 88.0443 227.083 87.5412 225.902V225.909ZM47.1219 248.237C46.6464 247.045 46.0144 245.933 45.2452 244.935C45.4236 246.218 45.768 247.468 46.2682 248.648C46.7421 249.84 47.3743 250.953 48.1449 251.949C47.9705 250.663 47.626 249.41 47.1219 248.229V248.237ZM53.8385 280.758C53.3646 279.565 52.735 278.45 51.9688 277.449C52.1386 278.734 52.4833 279.985 52.9918 281.161C53.0342 281.268 53.0836 281.367 53.1259 281.473L54.0925 281.42L53.8385 280.758ZM106.484 241.672C105.377 242.179 104.344 242.855 103.415 243.68C105.801 243.273 108.046 242.201 109.927 240.569C108.737 240.736 107.576 241.095 106.484 241.634V241.672ZM77.1207 274.672C76.0142 275.184 74.9809 275.863 74.0517 276.688C75.242 276.498 76.4012 276.127 77.4946 275.585C78.603 275.074 79.6368 274.393 80.5636 273.562C79.3718 273.748 78.2118 274.123 77.1207 274.672ZM29.1452 282.204C28.7219 282.417 28.2986 282.637 27.8894 282.881L30.2247 282.751C31.0755 282.311 31.8699 281.753 32.5882 281.093C31.3903 281.283 30.2238 281.657 29.1241 282.204H29.1452ZM47.5805 212.817C46.4748 213.331 45.4417 214.009 44.5115 214.833C46.8987 214.421 49.1454 213.346 51.0305 211.714C49.8302 211.9 48.6611 212.271 47.5593 212.817H47.5805ZM74.5667 245.133C73.4605 245.649 72.4273 246.33 71.4977 247.157C72.6914 246.972 73.8538 246.601 74.9477 246.054C76.0549 245.54 77.0884 244.859 78.0167 244.03C76.8171 244.219 75.6485 244.591 74.5455 245.133H74.5667ZM86.5605 195.328C85.4541 195.84 84.4207 196.518 83.4915 197.344C85.8788 196.932 88.1254 195.857 90.0105 194.225C88.7982 194.407 87.617 194.778 86.5041 195.328H86.5605ZM59.9977 166.23C59.7507 166.352 59.5109 166.473 59.2922 166.61C59.017 167.036 58.7418 167.47 58.4737 167.903C59.1298 167.693 59.773 167.439 60.3998 167.143C61.5049 166.628 62.5379 165.95 63.4688 165.127C62.2589 165.31 61.0801 165.681 59.9695 166.23H59.9977Z" fill="white"/>
<path d="M56.3924 166.131C28.489 201.589 9.41879 257.624 19.3243 265.855C30.5633 275.205 72.0832 282.896 88.5783 284.44C93.6933 284.919 94.4694 239.222 88.9804 239.359C82.3274 239.526 57.4507 234.08 56.7875 234.072C55.3764 234.072 68.9154 187.667 72.831 169.501C78.2847 144.176 66.8694 152.818 56.3924 166.131Z" fill="#F19999"/>
<path d="M143.016 246.525C144.201 251.09 140.385 253.783 140.385 253.783C142.001 255.376 143.049 257.529 143.348 259.868C143.693 264.022 137.802 266.426 137.802 266.426C139.159 268.461 139.916 270.889 139.975 273.394C139.933 277.403 134.331 280.743 134.331 280.743C134.622 283.353 134.031 285.989 132.666 288.168C128.8 293.835 118.866 293.029 112.552 292.58C106.237 292.131 87.0119 283.649 83.5337 282.553L87.4987 239.679C87.4987 239.679 116.355 232.984 123.713 234.643C129.915 236.058 141.683 241.413 143.016 246.525Z" fill="#F19999"/>
<path d="M140.265 253.592C134.007 250.405 127.212 249.378 120.51 247.94C120.362 247.94 120.32 248.168 120.468 248.199C127.177 249.538 133.548 252.299 140.222 253.935C140.257 253.927 140.288 253.908 140.313 253.881C140.337 253.853 140.352 253.818 140.357 253.78C140.361 253.742 140.355 253.704 140.339 253.67C140.322 253.637 140.296 253.609 140.265 253.592Z" fill="#263238"/>
<path d="M137.704 265.878C136.21 265.295 134.652 264.926 133.069 264.783C131.411 264.524 129.753 264.288 128.088 264.091C124.757 263.68 121.42 263.363 118.076 263.14C117.928 263.14 117.879 263.375 118.034 263.391C121.35 263.801 124.666 264.265 127.961 264.828C129.611 265.112 131.258 265.407 132.899 265.711C134.434 266.109 136.005 266.323 137.584 266.35C137.634 266.346 137.681 266.326 137.72 266.292C137.759 266.258 137.787 266.212 137.8 266.16C137.813 266.108 137.811 266.053 137.794 266.003C137.776 265.952 137.745 265.909 137.704 265.878Z" fill="#263238"/>
<path d="M134.169 280.758C132.941 280.112 131.305 280.157 129.971 279.997C128.447 279.845 126.93 279.686 125.406 279.518C122.373 279.184 119.339 278.841 116.312 278.392C116.164 278.392 116.115 278.621 116.27 278.643C119.339 279.115 122.401 279.64 125.477 280.081C126.987 280.304 128.497 280.515 130.006 280.713C131.298 280.888 132.885 281.26 134.162 280.903C134.173 280.895 134.182 280.884 134.188 280.872C134.194 280.86 134.198 280.846 134.199 280.832C134.199 280.818 134.197 280.804 134.192 280.792C134.187 280.779 134.179 280.767 134.169 280.758Z" fill="#263238"/>
<path d="M66.2697 210.421L26.7605 204.221C26.7605 204.221 52.512 165.91 63.0313 156.949C74.87 146.862 77.0642 155.595 75.5191 170.969C73.974 186.344 66.2697 210.421 66.2697 210.421Z" fill="#2909F0"/>
<path d="M59.9694 166.23C58.8516 166.736 57.8082 167.415 56.8722 168.246C59.2594 167.834 61.5061 166.759 63.3912 165.127C62.2078 165.317 61.0556 165.689 59.9694 166.23ZM70.3759 184.83C69.8991 183.636 69.2672 182.522 68.4992 181.521C68.8778 184.095 69.8778 186.516 71.3989 188.542C71.2205 187.259 70.8761 186.01 70.3759 184.83ZM31.29 197.64C31.0995 197.922 30.909 198.203 30.7185 198.47H30.7679C31.8972 198.956 33.085 199.266 34.2955 199.39C33.3743 198.659 32.3627 198.07 31.29 197.64ZM49.2455 191.471C48.7984 192.676 48.5156 193.944 48.4059 195.237C49.1219 194.194 49.6968 193.046 50.1133 191.828C50.5651 190.612 50.8503 189.33 50.9599 188.025C50.2364 189.078 49.6589 190.239 49.2455 191.471Z" fill="white"/>
<path d="M33.3642 197.222C34.7752 197.222 47.0936 198.934 49.7605 199.375C52.4274 199.816 63.3771 201.482 66.1074 202.182C66.1336 202.182 66.1588 202.193 66.1773 202.213C66.1958 202.233 66.2062 202.26 66.2062 202.289C66.2062 202.317 66.1958 202.344 66.1773 202.364C66.1588 202.384 66.1336 202.395 66.1074 202.395C63.3206 202.258 52.2792 200.607 49.5489 200.219C46.8185 199.831 34.6482 197.838 33.3219 197.42C33.209 197.382 33.2654 197.222 33.3642 197.222Z" fill="#263238"/>
<path d="M63.1441 209.599C64.3435 209.69 66.2131 209.911 66.2131 209.911C67.3913 204.038 69.1551 198.249 70.5732 192.414C71.9913 186.579 73.6281 180.646 75.1379 174.75C75.1426 174.732 75.1538 174.716 75.169 174.707C75.1842 174.698 75.2022 174.696 75.2191 174.701C75.2359 174.706 75.2502 174.718 75.2588 174.734C75.2674 174.751 75.2696 174.77 75.2649 174.788C74.6065 178.181 73.9339 181.566 73.2472 184.944L73.7128 183.727C74.2631 182.289 74.8487 180.866 75.3567 179.406C75.3632 179.38 75.3791 179.357 75.401 179.344C75.4228 179.33 75.4488 179.326 75.4731 179.333C75.4974 179.341 75.5181 179.358 75.5307 179.381C75.5433 179.405 75.5467 179.433 75.5401 179.459C75.155 180.977 74.6838 182.469 74.1291 183.924C73.7269 184.944 73.2613 185.925 72.7886 186.907C72.3794 188.839 71.9772 190.779 71.5186 192.703C70.1076 198.614 68.9788 205.286 67.1585 211.06C67.1585 211.06 64.3999 210.368 63.0453 209.858C63.0216 209.839 63.0045 209.811 62.9967 209.781C62.9889 209.75 62.9907 209.717 63.002 209.687C63.0133 209.658 63.0334 209.633 63.0591 209.617C63.0848 209.601 63.1147 209.595 63.1441 209.599Z" fill="#263238"/>
<path d="M92.4303 169.516C87.0966 171.471 76.9089 163.43 72.5629 156.53C72.2736 156.051 72.5135 150.711 72.5205 144.199C72.5205 140.251 72.4218 135.831 72.062 131.845C71.9843 131.023 95.9156 135.542 95.9156 135.542C95.9156 135.542 94.3705 144.176 95.0267 151.16C95.083 151.712 95.187 152.257 95.3371 152.788C95.3371 152.856 95.3794 152.947 95.3935 153.054C96.1414 156.127 97.5948 167.622 92.4303 169.516Z" fill="#F19999"/>
<path d="M93.009 153.434C93.8101 153.38 94.6054 153.253 95.3866 153.054C95.3734 152.961 95.3546 152.87 95.3301 152.78C95.1844 152.248 95.0829 151.703 95.0268 151.152C94.3706 144.176 95.9087 135.542 95.9087 135.542C95.9087 135.542 76.4927 131.868 72.697 131.738C73.8047 136.303 79.2372 154.53 93.009 153.434Z" fill="#263238"/>
<path d="M65.4654 100.51C63.5958 109.639 69.8608 135.055 76.1682 140.304C85.3399 147.911 99.3445 147.508 105.095 135.892C110.675 124.625 101.969 91.6704 95.0056 87.0071C84.7614 80.1453 68.231 87.0148 65.4654 100.51Z" fill="#F19999"/>
<path d="M106.781 121.636H106.724C107.183 128.033 106.266 134.469 102.385 139.543C101.422 140.854 100.246 141.965 98.9142 142.822C98.904 142.833 98.8976 142.847 98.8958 142.862C98.894 142.877 98.897 142.893 98.9043 142.906C98.9116 142.919 98.9229 142.929 98.9362 142.935C98.9495 142.94 98.9641 142.941 98.9777 142.936C100.184 142.228 101.305 141.362 102.315 140.357C103.31 139.317 104.165 138.132 104.855 136.835C106.409 133.959 107.263 130.707 107.338 127.379C107.332 125.449 107.145 123.525 106.781 121.636Z" fill="#263238"/>
<path d="M90.1023 114.34C90.1023 114.272 89.9965 114.454 90.0176 114.523C90.448 116.219 90.7232 118.25 89.3756 119.194C89.3333 119.194 89.3756 119.308 89.4109 119.285C91.1041 118.562 90.7726 115.869 90.1023 114.34Z" fill="#263238"/>
<path d="M88.2818 112.918C85.6714 113.382 86.7226 118.966 89.1355 118.532C91.5484 118.098 90.4619 112.53 88.2818 112.918Z" fill="#263238"/>
<path d="M99.3304 112.18C99.3304 112.111 99.4715 112.233 99.4856 112.302C99.7466 114.044 100.318 115.991 101.877 116.257C101.927 116.257 101.934 116.356 101.877 116.364C100.057 116.44 99.3233 113.869 99.3304 112.18Z" fill="#263238"/>
<path d="M100.438 110.065C102.978 109.304 104.199 114.85 101.849 115.55C99.4998 116.25 98.3075 110.696 100.438 110.065Z" fill="#263238"/>
<path d="M89.7354 110.088C89.1309 110.514 88.5069 110.908 87.8658 111.267C87.2605 111.777 86.5173 112.06 85.7492 112.073C85.5056 112.025 85.2836 111.892 85.1177 111.694C84.9518 111.496 84.8514 111.244 84.832 110.978C84.832 109.837 85.5375 109.061 86.4265 108.49C87.2651 107.882 88.2838 107.632 89.2839 107.79C89.5092 107.842 89.7157 107.963 89.8785 108.139C90.0413 108.315 90.1533 108.538 90.2011 108.781C90.2488 109.024 90.2303 109.277 90.1476 109.509C90.065 109.741 89.9218 109.942 89.7354 110.088Z" fill="#263238"/>
<path d="M101.651 104.877C100.928 104.876 100.205 104.833 99.4855 104.747C98.7167 104.815 97.9484 104.61 97.2984 104.162C97.1259 103.982 97.012 103.747 96.9739 103.492C96.9357 103.237 96.9753 102.976 97.0867 102.747C97.6441 101.781 98.6812 101.583 99.683 101.606C100.694 101.597 101.672 101.993 102.428 102.716C102.578 102.894 102.68 103.114 102.721 103.35C102.762 103.587 102.741 103.831 102.661 104.056C102.58 104.281 102.443 104.476 102.265 104.621C102.086 104.766 101.874 104.855 101.651 104.877Z" fill="#263238"/>
<path d="M92.4445 128.14C94.3071 126.816 96.9669 126.504 98.6601 126.352C98.8436 126.284 98.9353 125.858 98.9282 125.66C98.9282 125.599 98.124 122.039 98.124 122.039C98.6108 122.176 101.094 122.8 100.946 122.085C99.535 116.478 97.9546 110.24 95.443 104.983C95.4299 104.943 95.4024 104.91 95.3667 104.891C95.331 104.873 95.2899 104.87 95.2525 104.884C95.2151 104.899 95.1844 104.928 95.1672 104.967C95.15 105.005 95.1477 105.049 95.1608 105.09C96.3319 110.544 98.3709 115.74 99.6267 121.187C98.7399 120.961 97.8274 120.874 96.9175 120.928C96.7552 121.02 97.9617 124.732 98.0181 125.318C98.0181 125.318 94.5822 125.006 92.2964 127.41C91.6755 128.018 91.5555 128.771 92.4445 128.14Z" fill="#263238"/>
<path d="M89.2627 132.94C89.7213 133.244 90.2151 133.701 90.8007 133.632C91.3879 133.483 91.9388 133.201 92.4164 132.803C92.4265 132.795 92.4391 132.79 92.4519 132.791C92.4648 132.791 92.4772 132.796 92.487 132.805C92.4969 132.814 92.5037 132.826 92.5062 132.839C92.5088 132.853 92.5069 132.867 92.501 132.879C92.3403 133.267 92.0858 133.6 91.7643 133.845C91.4428 134.09 91.0661 134.238 90.6737 134.271C90.3328 134.255 90.0042 134.129 89.7292 133.911C89.4543 133.693 89.2453 133.393 89.1286 133.047C89.0863 132.955 89.1992 132.895 89.2627 132.94Z" fill="#263238"/>
<path d="M95.7958 125.485C94.2931 125.804 89.5237 127.889 90.709 130.278C91.224 131.327 92.8256 130.704 94.0532 129.175C94.8402 128.071 95.431 126.82 95.7958 125.485Z" fill="#263238"/>
<path d="M93.4393 129.852C92.3528 130.863 91.1393 131.153 90.7018 130.278C90.5595 129.985 90.5003 129.653 90.5316 129.325C90.563 128.996 90.6835 128.684 90.8782 128.429C91.7954 128.262 93.7497 128.094 93.4393 129.852Z" fill="#FF9ABB"/>
<path d="M101.821 95.611C94.6316 104.116 80.8175 97.5053 80.8175 97.5053C80.5282 99.707 79.5867 101.749 78.1336 103.327C76.6804 104.905 74.7932 105.934 72.7534 106.261C72.7534 106.261 74.4748 122.336 70.6368 123.271C64.7951 124.709 58.3466 103.835 59.2709 99.1789C60.1951 94.5232 64.915 92.1954 64.915 92.1954C64.915 92.1954 64.5693 88.8557 67.5255 84.976C70.785 80.6779 85.488 81.6212 85.488 81.6212C85.8392 79.4427 86.6609 77.3839 87.8868 75.6114C88.1786 75.1734 88.5498 74.8038 88.9779 74.5249C89.406 74.2461 89.8821 74.0638 90.3775 73.9892C90.8728 73.9145 91.377 73.9489 91.8597 74.0905C92.3423 74.232 92.7932 74.4777 93.1853 74.8126C92.7061 76.1512 92.5155 77.5898 92.6279 79.0195C92.9383 83.774 96.4095 82.8916 95.45 78.7456C95.1515 77.1808 94.34 75.7845 93.1641 74.8126C94.2859 71.6632 96.8892 70.0656 98.9 71.0926C102.576 72.9488 107.804 88.5438 101.821 95.611Z" fill="#263238"/>
<path d="M72.2029 121.628C72.2029 121.628 65.4229 114.515 62.3256 117.277C59.2284 120.038 65.3523 131.114 69.6983 131.906C70.2491 132.044 70.82 132.062 71.3773 131.959C71.9347 131.855 72.4672 131.632 72.9433 131.303C73.4194 130.974 73.8296 130.546 74.1496 130.043C74.4696 129.54 74.6929 128.973 74.8063 128.376L72.2029 121.628Z" fill="#F19999"/>
<path d="M64.1532 120.403C64.0897 120.403 64.0967 120.51 64.1532 120.525C67.2222 121.179 69.2259 123.72 70.7921 126.451C69.7479 125.485 68.4851 125.105 67.2645 126.451C67.201 126.52 67.2645 126.634 67.3703 126.596C67.84 126.321 68.3773 126.21 68.9081 126.278C69.4388 126.346 69.9369 126.59 70.3335 126.976C70.9933 127.626 71.5869 128.351 72.1044 129.137C72.2878 129.388 72.7182 129.137 72.57 128.847C72.5557 128.826 72.5438 128.803 72.5348 128.779C71.9068 124.884 68.1182 119.993 64.1532 120.403Z" fill="#263238"/>
<path d="M69.6068 158.546C72.6654 163.738 76.9255 167.98 81.9675 170.855C84.4127 172.318 87.1514 173.117 89.947 173.183C91.4068 173.233 92.8462 172.803 94.0742 171.951C95.1976 170.972 96.0656 169.695 96.593 168.246C97.2348 166.612 97.6439 164.884 97.8065 163.118C98.0171 161.131 98.0972 159.131 98.0463 157.132C98.0463 157.055 98.1522 157.063 98.1522 157.132C98.2015 159.026 98.3991 160.935 98.3215 162.807C98.2869 164.478 98.0497 166.138 97.616 167.744C97.1932 169.275 96.4715 170.691 95.4994 171.897C94.4582 173.094 93.0593 173.856 91.5485 174.05C88.5959 174.419 85.6076 173.854 82.9482 172.422C80.2801 171.089 77.8212 169.316 75.6601 167.166C73.1827 164.699 71.0951 161.814 69.4798 158.623C69.3951 158.516 69.5715 158.44 69.6068 158.546Z" fill="#263238"/>
<path d="M118.873 249.112C124.115 260.097 137.796 252.094 140.745 244.083C147.722 225.27 149.867 185.712 147.962 167.508C147.348 161.65 112.637 167.097 111.331 173.236C109.991 179.664 108.241 226.815 118.873 249.112Z" fill="#F19999"/>
<path d="M147.666 170.3C147.666 170.3 149.077 158.44 149.902 148.01C150.354 142.191 149.197 130.323 147.708 125.888C145.493 119.247 132.293 93.0017 126.324 96.3185C120.92 99.3158 134.917 120.312 134.917 120.312C134.917 120.312 122.528 97.7791 116.637 102.686C110.746 107.593 129.485 129.038 129.485 129.038C129.485 129.038 116.277 106.216 110.943 112.302C106.915 116.904 122.874 137.406 122.874 137.406C122.874 137.406 111.395 117.855 107.056 122.396C102.273 127.417 115.896 147.303 115.896 147.303C106.724 160.844 104.841 169.311 112.164 177.42C113.349 178.675 147.666 170.3 147.666 170.3Z" fill="#F19999"/>
<path d="M139.658 127.805C138.296 125.105 136.928 122.358 135.347 119.795C133.767 117.231 132.095 114.728 130.296 112.332C125.879 106.467 122.267 103.538 122.471 103.743C127.318 108.642 133.125 117.726 134.705 120.289C136.286 122.853 137.986 125.318 139.573 127.897C139.616 127.942 139.693 127.851 139.658 127.805Z" fill="#263238"/>
<path d="M131.185 134.142C129.301 130.772 127.544 127.356 125.54 124.07C123.537 120.784 121.357 117.901 119.141 114.789C118.972 114.553 118.909 114.728 119.071 114.979C121.187 118.174 122.881 121.309 124.941 124.534C127.001 127.76 129.174 130.901 131.135 134.195C131.142 134.249 131.213 134.195 131.185 134.142Z" fill="#263238"/>
<path d="M124.814 140.989C122.049 135.635 118.79 130.596 115.085 125.949C114.908 125.721 114.852 125.949 115.021 126.208C118.344 131.023 120.962 135.131 124.644 141.095C124.701 141.187 124.87 141.103 124.814 140.989Z" fill="#263238"/>
<path d="M115.988 109.008C115.624 107.918 115.421 106.773 115.388 105.615C115.416 104.552 115.791 103.533 116.446 102.739C116.489 102.686 116.566 102.739 116.517 102.815C115.677 103.576 115.663 105.052 115.811 106.124C115.982 107.174 116.239 108.205 116.58 109.205C116.93 110.248 117.342 111.264 117.815 112.248C118.262 113.229 118.756 114.184 119.297 115.109C119.302 115.116 119.305 115.126 119.305 115.135C119.305 115.145 119.302 115.154 119.297 115.162C119.292 115.167 119.287 115.171 119.281 115.174C119.274 115.176 119.268 115.178 119.261 115.178C119.255 115.178 119.248 115.176 119.242 115.174C119.236 115.171 119.231 115.167 119.226 115.162C118.212 113.868 116.948 112.83 115.522 112.119C114.873 111.731 114.147 111.52 113.406 111.503C112.72 111.547 112.073 111.86 111.586 112.383C111.099 112.905 110.805 113.601 110.76 114.34C110.765 115.082 110.897 115.817 111.148 116.508C111.635 118.113 112.205 119.688 112.855 121.225C113.215 122.077 113.561 122.914 114.005 123.735C114.45 124.557 114.894 125.348 115.254 126.192C115.254 126.246 115.099 126.291 115.064 126.261C114.584 125.827 111.211 122.305 109.187 122.123C108.668 122.046 108.14 122.146 107.677 122.409C107.213 122.672 106.838 123.086 106.604 123.591C106.134 124.684 106.012 125.915 106.259 127.09C106.678 129.11 107.237 131.093 107.931 133.024C107.931 133.085 107.86 133.115 107.839 133.024C107.31 131.616 106.16 128.596 105.8 127.128C105.444 125.903 105.506 124.58 105.976 123.401C106.199 122.867 106.549 122.405 106.99 122.064C107.431 121.722 107.948 121.511 108.488 121.453C109.613 121.495 110.695 121.93 111.571 122.693C112.652 123.594 113.682 124.564 114.654 125.599C114.323 125.082 112.876 122.366 112.495 121.537C111.718 119.879 111.053 118.163 110.506 116.402C110.019 114.88 109.892 113.184 111.035 111.914C111.557 111.382 112.216 111.034 112.926 110.917C113.636 110.8 114.362 110.92 115.007 111.259C116.057 111.741 117.014 112.43 117.829 113.29C117.625 112.979 117.427 112.651 117.251 112.317C116.732 111.26 116.309 110.152 115.988 109.008Z" fill="#263238"/>
<path d="M113.716 233.053C114.358 235.076 114.965 237.1 115.663 239.093C116.362 241.086 117.032 243.079 117.78 245.027C118.497 246.953 119.405 248.789 120.489 250.504C120.617 250.705 120.759 250.896 120.912 251.074L121.364 251.561C121.722 251.875 122.102 252.16 122.5 252.413C123.287 252.918 124.141 253.29 125.033 253.516C125.927 253.737 126.847 253.814 127.763 253.745C128.689 253.655 129.601 253.443 130.479 253.113C132.278 252.413 133.964 251.411 135.474 250.146C136.265 249.545 136.984 248.823 137.718 248.146C138.421 247.445 139.044 246.656 139.573 245.795C140.675 244.04 141.52 242.114 142.078 240.082C141.772 242.214 141.125 244.274 140.166 246.168C139.668 247.13 139.064 248.024 138.367 248.83C137.674 249.626 136.942 250.38 136.173 251.09C134.62 252.534 132.85 253.682 130.938 254.482C129.957 254.878 128.932 255.134 127.89 255.243C126.829 255.334 125.762 255.258 124.722 255.015C123.692 254.739 122.707 254.295 121.801 253.699C121.348 253.403 120.916 253.07 120.51 252.702L119.918 252.063C119.74 251.845 119.578 251.614 119.431 251.371C118.322 249.533 117.431 247.552 116.778 245.475C115.438 241.434 114.414 237.278 113.716 233.053Z" fill="#263238"/>
<path d="M114.718 72.8803L123.191 59.7805L127.361 64.3601L135.009 54.4858L139.376 59.423L126.98 68.0268L123.657 63.5613L114.718 72.8803Z" fill="#9A0000"/>
<path d="M112.016 80.1682L123.706 77.3534L123.713 81.3777L132.208 81.9939L132.292 86.2997L120.891 84.0783L121.787 80.1377L112.016 80.1682Z" fill="#9A0000"/>
<path d="M108.093 72.8803L107.232 60.7466L111.24 61.2716L111.155 51.382L115.621 50.8647L113.088 63.6755L109.525 62.9528L108.093 72.8803Z" fill="#9A0000"/>
<path d="M9.38354 307.62L44.3562 307.429L79.336 307.369L149.295 307.239L219.255 307.369L254.235 307.429L289.207 307.62L254.235 307.802L219.255 307.871L149.295 308L79.336 307.871L44.3562 307.802L9.38354 307.62Z" fill="#263238"/>
<path d="M8.67775 57.8635C8.67344 62.8669 9.95939 67.773 12.3919 72.0338C14.8245 76.2946 18.3078 79.7422 22.4527 81.9914C26.5977 84.2407 31.241 85.203 35.8639 84.7709C40.4868 84.3388 44.9073 82.5292 48.6314 79.5444L60.9004 82.922L55.7925 70.6058C57.5888 66.987 58.5962 62.9743 58.7382 58.8727C58.8802 54.771 58.1531 50.6885 56.612 46.9354C55.0709 43.1823 52.7565 39.8575 49.8448 37.2137C46.933 34.5699 43.5006 32.6768 39.8084 31.6782C36.1161 30.6797 32.2614 30.602 28.5371 31.451C24.8128 32.3001 21.3172 34.0535 18.3158 36.5781C15.3144 39.1027 12.8864 42.3319 11.2163 46.0203C9.54621 49.7086 8.67802 53.759 8.67775 57.8635Z" fill="white"/>
<path d="M8.67798 57.8635C8.70203 62.8465 9.99818 67.7262 12.4243 71.9675C13.0332 73.0237 13.6999 74.0398 14.4209 75.0104C15.1714 75.9502 15.9724 76.8418 16.8197 77.6806C17.2348 78.1082 17.6704 78.5119 18.1249 78.8901L19.536 80.0008C20.0016 80.366 20.5166 80.6474 21.0034 80.9821L21.709 81.4538C21.9559 81.6059 22.224 81.7277 22.478 81.8646L24.0372 82.6253L25.6599 83.2491C26.1969 83.4675 26.7489 83.6404 27.3108 83.7664C27.8682 83.9034 28.4185 84.1012 28.9829 84.1848C30.1113 84.4026 31.2522 84.5373 32.3976 84.588C33.54 84.6692 34.6867 84.6514 35.8264 84.5348C38.1072 84.3048 40.3481 83.7392 42.4866 82.8535C44.6167 81.9545 46.6244 80.7492 48.4553 79.2705L48.547 79.1944H48.6669L60.9501 82.5112L60.5902 82.9753L55.4611 70.7199L55.3905 70.5601L55.4752 70.4003C57.2419 66.8281 58.2335 62.8701 58.3752 58.8246C58.517 54.7791 57.8052 50.7516 56.2936 47.0459C54.7571 43.3486 52.4887 40.0588 49.6476 37.4074C46.7782 34.7723 43.3874 32.8805 39.735 31.8768C36.0733 30.8599 32.2458 30.7481 28.5384 31.5497C24.8302 32.398 21.3446 34.129 18.3366 36.6162C15.3396 39.138 12.9131 42.3609 11.2399 46.0415C9.56675 49.7222 8.69074 53.7645 8.67798 57.8635ZM8.67798 57.8635C8.68083 53.7597 9.54785 49.7102 11.2136 46.0204C12.8794 42.3306 15.3005 39.0968 18.2942 36.563C21.2864 33.9938 24.7869 32.2019 28.5245 31.3259C32.2622 30.45 36.1367 30.5136 39.8479 31.5117C43.5788 32.4865 47.0538 34.3678 50.0074 37.0118C52.9643 39.6748 55.318 43.0308 56.8892 46.8237C58.4604 50.6167 59.2074 54.7465 59.0734 58.8981C58.9521 63.0582 57.9301 67.1301 56.089 70.7883V70.4612L61.1688 82.7927L61.4298 83.4241L60.8089 83.2491L48.554 79.8106L48.7657 79.765C44.9991 82.7564 40.5321 84.5533 35.8688 84.9532C34.7135 85.0521 33.5528 85.0521 32.3976 84.9532C31.2416 84.8913 30.0911 84.7413 28.9547 84.5043C28.3761 84.4131 27.8258 84.2076 27.2685 84.0631C26.7021 83.9233 26.1457 83.7403 25.6034 83.5154L23.9807 82.8612C23.4586 82.6025 22.9436 82.321 22.4215 82.0472C22.1605 81.9026 21.8994 81.7809 21.6455 81.6288L20.9399 81.1343C20.4602 80.7996 19.9452 80.5029 19.4795 80.1301L18.0685 79.0042C17.6124 78.6228 17.1766 78.2138 16.7633 77.7795C15.9123 76.9366 15.1112 76.0372 14.3645 75.0865C13.6445 74.1185 12.9823 73.1022 12.382 72.0435C9.95924 67.7751 8.67741 62.8679 8.67798 57.8635Z" fill="#263238"/>
<path d="M30.3726 41.561H36.2284L35.8333 64.8394H30.7676L30.3726 41.561Z" fill="#DC0000"/>
<path d="M35.8332 67.753H30.7676V73.2151H35.8332V67.753Z" fill="#DC0000"/>
</svg>
